<?xml version="1.0" standalone="no"?>
<!DOCTYPE svg PUBLIC "-//W3C//DTD SVG 20010904//EN"
 "http://www.w3.org/TR/2001/REC-SVG-20010904/DTD/svg10.dtd">
<svg version="1.0" xmlns="http://www.w3.org/2000/svg"
 width="256.000000pt" height="105.000000pt" viewBox="0 0 256.000000 105.000000"
 preserveAspectRatio="xMidYMid meet">

<g transform="translate(0.000000,105.000000) scale(0.100000,-0.100000)"
fill="#000000" stroke="none">
<path d="M240 707 c0 -18 -3 -37 -6 -40 -12 -12 -16 -147 -5 -147 6 0 11 16
11 35 0 19 4 35 10 35 5 0 7 -26 3 -65 -5 -58 -3 -68 15 -88 11 -12 25 -34 31
-49 6 -16 15 -28 21 -28 16 0 12 30 -11 66 -14 23 -18 41 -13 56 6 21 9 20 52
-27 25 -28 51 -64 58 -82 13 -31 31 -49 40 -41 2 3 -8 31 -23 64 -15 32 -27
69 -28 81 0 12 -8 30 -17 40 -16 18 -38 76 -38 99 0 7 7 14 16 16 14 3 13 7
-6 31 -12 15 -30 27 -40 27 -12 0 -20 8 -22 23 -2 14 -11 23 -25 25 -20 3 -23
-1 -23 -31z"/>
<path d="M522 732 l-52 -3 2 -197 3 -197 59 0 c39 0 61 4 64 13 2 8 -11 12
-47 12 l-51 0 0 175 0 175 50 0 c28 0 50 4 50 9 0 13 -19 16 -78 13z"/>
<path d="M1290 721 c0 -6 19 -11 43 -13 l42 -3 3 -172 2 -173 -45 0 c-34 0
-45 -4 -45 -15 0 -13 11 -15 58 -13 l57 3 3 198 2 197 -60 0 c-33 0 -60 -4
-60 -9z"/>
<path d="M1450 695 c0 -25 38 -139 47 -142 5 -2 19 28 30 67 11 38 17 70 12
70 -5 0 -14 -20 -20 -45 -6 -25 -15 -47 -19 -50 -4 -3 -13 17 -20 43 -12 44
-30 78 -30 57z"/>
<path d="M1650 624 l0 -76 33 6 c40 8 57 30 57 73 0 40 -30 73 -65 73 -24 0
-25 -2 -25 -76z m65 1 c0 -47 -2 -50 -27 -53 -28 -3 -28 -3 -28 53 0 56 0 56
28 53 25 -3 27 -6 27 -53z"/>
<path d="M1784 686 c-3 -7 -4 -40 -2 -72 l3 -59 38 -3 c21 -2 37 1 37 7 0 6
-13 11 -30 11 -25 0 -30 4 -30 25 0 20 5 25 28 26 l27 1 -25 7 c-15 4 -26 15
-28 29 -3 19 1 22 27 22 17 0 31 5 31 10 0 15 -70 12 -76 -4z"/>
<path d="M1916 685 c-33 -33 -14 -135 25 -135 26 0 49 23 55 54 12 67 -40 120
-80 81z m58 -21 c9 -22 7 -67 -3 -82 -26 -42 -75 25 -53 73 13 28 47 34 56 9z"/>
<path d="M1593 625 c0 -38 2 -53 4 -32 2 20 2 52 0 70 -2 17 -4 1 -4 -38z"/>
<path d="M863 652 c-22 -3 -23 -7 -23 -110 0 -112 7 -139 34 -129 11 5 16 19
16 50 0 51 6 60 31 47 12 -7 19 -24 21 -53 2 -34 7 -42 23 -42 17 0 19 6 16
50 -1 28 -7 55 -11 60 -5 6 -2 19 6 29 42 58 -23 114 -113 98z m61 -38 c21 -8
21 -50 0 -58 -22 -8 -34 1 -34 28 0 33 8 40 34 30z"/>
<path d="M1201 643 c-44 -36 -50 -174 -10 -214 36 -36 119 -11 119 35 0 26
-23 30 -41 8 -9 -12 -22 -22 -28 -22 -31 0 -44 120 -16 156 15 19 15 19 34 -3
24 -29 51 -30 51 -3 0 27 -35 60 -64 60 -13 0 -34 -8 -45 -17z"/>
<path d="M1020 530 l0 -120 60 0 c53 0 60 2 60 19 0 16 -8 20 -37 23 -35 3
-38 6 -41 36 -3 31 -3 32 38 32 34 0 41 3 38 18 -2 12 -14 18 -41 20 -31 3
-37 7 -37 27 0 20 6 24 37 27 27 2 39 8 41 21 3 15 -5 17 -57 17 l-61 0 0
-120z"/>
<path d="M614 621 c-63 -38 -64 -132 -3 -175 43 -30 125 -11 149 33 14 27 12
92 -3 111 -40 51 -92 62 -143 31z"/>
<path d="M1464 507 c-3 -8 -6 -40 -7 -73 l-2 -59 30 2 c17 1 38 12 48 24 21
26 22 82 1 103 -19 19 -63 21 -70 3z m64 -44 c4 -41 -13 -73 -38 -73 -17 0
-20 7 -20 39 0 55 9 73 34 69 16 -2 22 -11 24 -35z"/>
<path d="M1595 473 c-13 -99 -14 -98 28 -101 21 -2 37 1 37 7 0 6 -14 11 -31
11 -26 0 -30 3 -27 23 2 16 11 23 31 25 34 4 36 22 2 22 -18 0 -25 5 -25 20 0
16 7 20 35 20 19 0 35 5 35 10 0 6 -18 10 -39 10 l-40 0 -6 -47z"/>
<path d="M1716 488 c-3 -18 -8 -50 -11 -70 -4 -24 -2 -38 5 -38 5 0 10 11 10
25 0 20 5 25 23 25 26 0 57 28 57 51 0 23 -21 39 -52 39 -23 0 -28 -5 -32 -32z
m62 -10 c-2 -15 -11 -24 -25 -26 -19 -3 -23 1 -23 22 0 21 5 26 26 26 21 0 25
-4 22 -22z"/>
<path d="M1846 498 c-19 -27 -21 -99 -4 -116 18 -18 42 -15 62 7 23 25 33 96
16 116 -18 22 -57 18 -74 -7z m64 -34 c0 -45 -15 -74 -39 -74 -26 0 -33 25
-21 71 9 32 15 39 35 39 22 0 25 -4 25 -36z"/>
<path d="M1976 488 c-3 -18 -8 -50 -11 -70 -4 -24 -2 -38 5 -38 5 0 10 11 10
25 0 16 6 25 15 25 9 0 20 -11 25 -25 13 -34 23 -32 15 3 -4 20 -1 33 10 42
33 28 7 70 -44 70 -15 0 -21 -8 -25 -32z m62 -10 c-2 -15 -11 -24 -25 -26 -19
-3 -23 1 -23 22 0 21 5 26 26 26 21 0 25 -4 22 -22z"/>
<path d="M2100 510 c0 -5 7 -10 15 -10 11 0 14 -7 11 -22 -14 -67 -16 -98 -7
-98 6 0 13 27 17 60 5 50 10 60 25 60 11 0 19 5 19 10 0 6 -18 10 -40 10 -22
0 -40 -4 -40 -10z"/>
<path d="M2215 498 c-3 -13 -6 -45 -8 -73 -2 -48 -1 -50 27 -53 16 -2 33 1 39
7 8 8 2 11 -21 11 -27 0 -32 4 -32 25 0 21 5 25 31 25 17 0 28 4 24 10 -3 6
-15 10 -26 10 -12 0 -19 7 -19 20 0 16 7 20 30 20 17 0 30 5 30 10 0 6 -16 10
-35 10 -28 0 -36 -4 -40 -22z"/>
<path d="M2340 505 c-18 -21 -8 -48 23 -63 17 -8 27 -20 25 -30 -5 -24 -39
-27 -56 -6 -13 18 -14 18 -10 0 9 -50 88 -42 88 9 0 19 -8 28 -36 40 -41 17
-41 38 -1 43 19 2 27 -1 27 -12 0 -9 5 -16 10 -16 14 0 13 23 -2 38 -16 16
-53 15 -68 -3z"/>
<path d="M210 376 c-18 -22 -5 -48 22 -44 17 2 23 10 23 28 0 29 -26 38 -45
16z"/>
</g>
</svg>
