<svg version="1.1" id="Layer_1" xmlns="http://www.w3.org/2000/svg" xmlns:xlink="http://www.w3.org/1999/xlink" x="0px" y="0px"
	 width="100%" viewBox="0 0 1024 1024" enable-background="new 0 0 1024 1024" xml:space="preserve">
<path fill="#000000" opacity="1.000000" stroke="none" 
	d="
M95.694839,375.830383 
	C95.285507,373.476227 94.726166,371.519257 94.703873,369.556152 
	C94.630005,363.049774 97.774590,359.160370 103.252411,358.673157 
	C109.421013,358.124512 113.780304,361.467072 114.997864,367.738098 
	C115.382690,369.720154 115.279327,371.695709 114.766327,373.674591 
	C113.948547,376.829132 115.334946,378.852631 118.494514,378.541565 
	C125.836502,377.818817 130.814651,381.466827 135.210083,386.630524 
	C138.117371,390.045929 142.206909,392.256989 144.742966,396.103790 
	C146.330109,398.511261 148.513351,400.972168 146.833252,403.781342 
	C145.122284,406.642120 142.100082,405.080170 139.570236,404.572876 
	C137.950577,404.248077 136.336914,403.893463 134.320847,403.467834 
	C134.450989,411.590698 136.924026,418.876801 139.830521,426.057343 
	C141.454239,430.068756 143.016006,434.052307 143.448837,438.452332 
	C143.827652,442.303192 147.542114,444.208679 149.642792,446.956268 
	C153.330673,451.779816 155.973267,457.098541 158.981003,462.247467 
	C161.726578,466.947571 156.285034,466.831940 154.542496,469.202454 
	C155.305542,472.233337 156.726013,475.050079 158.925522,477.338287 
	C165.290100,483.959595 168.313171,492.169098 170.216843,500.869995 
	C170.990906,504.407959 172.163193,507.666718 174.926086,509.992950 
	C177.913101,512.507812 178.641434,516.221191 180.477203,519.336365 
	C181.228287,520.610901 181.103210,521.921082 179.719177,522.819336 
	C176.830429,524.694214 170.081146,522.857605 168.520233,519.700562 
	C163.817688,510.189209 160.583664,499.865234 153.917892,491.436462 
	C144.485458,479.509277 136.526535,466.262909 124.077484,457.153717 
	C117.021957,457.704803 119.759827,465.762665 115.044922,468.443298 
	C116.878494,472.489288 118.705811,476.571869 120.583694,480.631042 
	C121.071419,481.685272 121.464226,483.165466 122.329430,483.604004 
	C131.143356,488.071503 129.484451,497.226715 131.910477,504.543823 
	C133.134048,508.234222 132.505905,511.368225 128.641846,512.742004 
	C124.536461,514.201599 123.379097,510.795197 122.568703,507.946228 
	C121.125641,502.873199 117.701729,498.538391 117.510986,492.950867 
	C117.425583,490.449097 115.062447,488.730194 113.048576,487.177795 
	C103.187317,479.576324 97.847084,469.350067 97.981476,457.095123 
	C98.054108,450.472839 100.539955,443.864655 102.039566,437.273438 
	C103.959419,428.835236 102.595894,420.660736 100.181213,412.474030 
	C98.386963,421.262268 93.789078,429.535645 96.402725,438.992340 
	C97.310555,442.277008 96.707588,445.567688 93.479675,447.756409 
	C91.902306,448.825958 90.415665,448.326385 89.465652,447.137756 
	C87.283180,444.407074 86.283264,441.252594 88.008263,437.907440 
	C89.515503,434.984558 89.836540,431.921112 89.892914,428.721375 
	C90.024681,421.243286 89.556786,413.758667 90.620453,406.287567 
	C91.082512,403.042114 91.008553,399.703766 89.828346,396.428101 
	C88.346191,392.314362 89.557686,388.423950 93.346756,386.513306 
	C98.704651,383.811646 98.455002,380.476013 95.694839,375.830383 
z"/>
<path fill="#000000" opacity="1.000000" stroke="none" 
	d="
M226.739548,432.149780 
	C231.276077,416.982452 240.588638,406.924652 255.424454,402.261780 
	C281.170593,394.169800 308.220001,413.146393 309.183990,440.108032 
	C309.812500,457.686676 302.413177,471.177521 286.969147,479.525787 
	C272.012299,487.610626 256.930786,486.559448 243.214096,476.604065 
	C228.255737,465.747498 223.387497,450.550262 226.739548,432.149780 
z"/>
<path fill="#000000" opacity="1.000000" stroke="none" 
	d="
M393.355530,470.919373 
	C393.662018,476.381378 393.874329,481.366791 394.309265,486.332672 
	C394.593201,489.574249 393.236237,490.983368 390.086884,490.932861 
	C376.657196,490.717407 376.156250,493.058350 375.707214,477.845734 
	C375.516022,471.369751 376.159149,464.863312 374.824860,458.426117 
	C373.461395,451.848175 363.461456,447.228638 357.601471,450.566223 
	C355.578339,451.718597 356.090881,453.741943 356.077179,455.486542 
	C356.000000,465.309204 355.851685,475.135468 356.046509,484.954163 
	C356.131439,489.234924 354.574432,490.823364 350.293060,490.964172 
	C337.768707,491.375854 337.751190,491.508942 337.753998,479.279358 
	C337.759949,453.472565 337.784302,427.665802 337.816620,401.859009 
	C337.825317,394.914734 337.847168,394.867096 344.903046,394.321320 
	C354.727020,393.561462 364.579468,394.017853 374.322693,394.979736 
	C387.892792,396.319427 396.713531,409.098999 395.016174,423.657898 
	C394.130066,431.258148 391.274628,437.743530 384.178589,442.593079 
	C393.996582,449.901917 393.404877,460.249298 393.355530,470.919373 
M367.804565,434.710785 
	C375.208496,432.442505 377.880615,427.611267 376.629059,418.755981 
	C375.746948,412.514618 371.902405,409.464417 364.657990,409.293457 
	C362.993866,409.254181 361.326538,409.343658 359.662903,409.295990 
	C357.126587,409.223297 356.037231,410.464447 356.064941,412.939026 
	C356.107819,416.768768 356.003723,420.601227 356.099823,424.429108 
	C356.377350,435.482727 353.933289,435.073120 367.804565,434.710785 
z"/>
<path fill="#000000" opacity="1.000000" stroke="none" 
	d="
M424.472626,412.672607 
	C424.397247,418.260651 424.445129,423.422119 424.338837,428.580383 
	C424.277191,431.570984 425.576141,432.734863 428.540649,432.695160 
	C435.863892,432.597137 443.191254,432.770660 450.513306,432.636200 
	C453.940765,432.573242 455.265930,433.927399 455.244019,437.344757 
	C455.160400,450.377197 455.876648,448.186493 444.845947,448.327972 
	C439.686157,448.394196 434.520569,448.482452 429.365936,448.310944 
	C425.824463,448.193115 424.154999,449.331787 424.296814,453.144653 
	C424.506989,458.796509 424.461090,464.466187 424.285950,470.120941 
	C424.180328,473.529724 425.417603,474.902832 428.911835,474.837585 
	C437.065826,474.685364 445.226593,474.905548 453.381104,474.767700 
	C457.365265,474.700409 458.843597,476.169128 458.010742,480.167053 
	C455.722931,491.148865 459.042236,491.149414 445.156281,491.052185 
	C434.169830,490.975220 423.181763,490.874908 412.196594,490.990173 
	C408.234650,491.031708 406.606476,489.795166 406.629700,485.540894 
	C406.785339,457.075439 406.803680,428.608246 406.639465,400.142944 
	C406.613342,395.617401 408.311432,394.459381 412.503662,394.525818 
	C425.318756,394.728882 438.139832,394.716492 450.956268,394.577606 
	C454.737793,394.536652 456.364075,395.700012 456.298767,399.696167 
	C456.097168,412.031616 457.293091,410.228302 446.139954,410.335815 
	C440.480530,410.390381 434.819763,410.310974 429.160400,410.367767 
	C427.419342,410.385223 425.350616,409.847382 424.472626,412.672607 
z"/>
<path fill="#000000" opacity="1.000000" stroke="none" 
	d="
M469.227661,414.455383 
	C476.527679,394.053650 497.605286,386.314240 513.938110,397.710876 
	C521.603516,403.059631 523.874939,411.129456 524.978333,419.744537 
	C525.259766,421.941681 524.091187,423.204163 521.790283,423.233124 
	C520.125427,423.254089 518.460510,423.277710 516.795593,423.278717 
	C508.649139,423.283630 508.606750,423.294952 506.174194,415.871887 
	C504.784302,411.630463 502.016418,408.999084 497.561371,408.683899 
	C493.102112,408.368439 489.953094,410.609619 488.028381,414.600220 
	C486.045624,418.711182 485.075317,423.149506 484.817627,427.611725 
	C484.032227,441.210693 482.755371,454.884674 487.045532,468.202850 
	C489.156830,474.757050 491.937775,477.037292 497.034821,476.818359 
	C501.846222,476.611694 505.311218,473.635590 506.275055,467.341675 
	C506.974426,462.774811 509.024139,461.369843 513.191772,461.864380 
	C514.012634,461.961823 514.855286,461.875702 515.687866,461.874542 
	C525.888794,461.860291 526.444458,462.605408 523.453491,472.289154 
	C519.170593,486.156128 509.426636,492.770508 493.922333,492.335571 
	C480.609589,491.962067 471.071808,484.339935 468.125824,470.197876 
	C464.285645,451.763306 464.097443,433.202972 469.227661,414.455383 
z"/>
<path fill="#000000" opacity="1.000000" stroke="none" 
	d="
M563.250244,489.000000 
	C563.238464,498.829742 563.109070,508.161530 563.270203,517.488281 
	C563.336426,521.325073 561.897400,522.943359 558.056274,522.916077 
	C545.228577,522.825012 532.399109,522.781982 519.572021,522.903625 
	C515.051025,522.946472 514.637573,520.440125 514.566650,516.818420 
	C514.489563,512.881409 515.959106,511.545929 519.838501,511.632874 
	C528.664062,511.830627 537.500610,511.543457 546.325500,511.754730 
	C550.279541,511.849396 551.949585,510.781464 551.942139,506.472290 
	C551.868164,463.822266 551.935913,421.171814 552.075684,378.521881 
	C552.088562,374.602722 550.690674,373.264160 546.800964,373.353088 
	C537.975891,373.554871 529.139832,373.261932 520.313843,373.443237 
	C516.381348,373.523987 514.623413,372.447266 514.656067,368.128357 
	C514.687439,363.975006 516.094910,362.589417 520.201172,362.652069 
	C532.526978,362.840149 544.862122,362.914246 557.183777,362.619995 
	C562.150574,362.501373 563.367310,364.424652 563.350952,369.045288 
	C563.209961,408.863129 563.257996,448.681671 563.250244,489.000000 
z"/>
<path fill="#000000" opacity="1.000000" stroke="none" 
	d="
M187.658936,420.999939 
	C187.664642,403.169189 187.805313,385.836731 187.586975,368.508850 
	C187.528473,363.866028 188.749390,361.930237 193.701263,362.021729 
	C206.861176,362.264893 220.029510,362.146362 233.193253,362.029785 
	C237.224319,361.994110 239.308426,363.108185 239.280014,367.699890 
	C239.252502,372.145752 237.556931,373.461273 233.316299,373.368896 
	C223.322617,373.151306 213.319000,373.415955 203.323318,373.249969 
	C199.635086,373.188782 198.332428,374.557007 198.337265,378.205414 
	C198.393845,420.865479 198.387451,463.525726 198.278152,506.185638 
	C198.268448,509.971771 199.753387,511.113464 203.308029,511.073547 
	C213.138275,510.963257 222.971420,511.137390 232.802582,511.072052 
	C236.686768,511.046265 239.070587,511.897644 239.027451,516.615662 
	C238.984451,521.319153 237.062439,522.483337 232.656296,522.394531 
	C220.163254,522.142761 207.661819,522.315857 195.163712,522.303894 
	C187.648605,522.296753 187.650970,522.281860 187.651749,514.985718 
	C187.655060,483.823792 187.656860,452.661865 187.658936,420.999939 
z"/>
<path fill="#000000" opacity="1.000000" stroke="none" 
	d="
M607.289062,502.489136 
	C598.996277,507.365723 590.228333,506.225830 581.616699,506.069427 
	C578.820251,506.018646 578.587402,503.878571 578.865356,501.743622 
	C580.967834,485.594635 583.139465,469.454590 585.210388,453.301575 
	C585.622925,450.083191 587.100891,448.639343 590.439636,448.823456 
	C596.073181,449.134125 601.765076,448.281097 607.344299,449.716431 
	C613.924622,451.409363 618.128662,455.397125 619.398743,462.199493 
	C621.318542,472.481781 619.877075,482.429016 615.994934,492.011566 
	C614.294373,496.209229 611.648987,499.884766 607.289062,502.489136 
M612.213501,461.528778 
	C608.876160,455.953125 598.678589,452.707397 592.935120,455.299042 
	C591.200684,456.081604 591.175598,457.630157 590.952881,459.029694 
	C590.093201,464.432190 589.291321,469.845795 588.590515,475.271149 
	C587.539124,483.410431 586.591064,491.563049 585.562622,500.009247 
	C588.877502,500.009247 591.508240,499.977448 594.138123,500.015228 
	C601.848572,500.125977 607.322327,496.464935 610.102783,489.504364 
	C613.599243,480.751251 615.057312,471.633453 612.213501,461.528778 
z"/>
<path fill="#000000" opacity="1.000000" stroke="none" 
	d="
M806.431702,487.557190 
	C804.744751,480.871155 799.666443,483.706879 796.012268,483.482605 
	C792.455566,483.264343 792.747131,486.651703 792.416077,488.979187 
	C791.784790,493.417480 791.446472,497.896667 790.877808,502.344971 
	C790.574829,504.714935 789.536865,506.516357 786.679260,506.122314 
	C783.541199,505.689545 784.402832,503.358398 784.637329,501.488708 
	C786.683594,485.179138 788.779541,468.875732 790.864685,452.571045 
	C791.119934,450.575745 791.924988,448.924835 794.206726,448.937775 
	C800.674377,448.974426 807.198364,448.081879 813.583435,449.755249 
	C820.082336,451.458466 823.280396,455.670288 823.300903,462.438965 
	C823.323853,470.025757 821.093384,476.615265 814.289246,480.767426 
	C812.124084,482.088654 811.778320,483.486572 812.424316,485.689240 
	C813.966797,490.948944 815.434204,496.231812 816.840881,501.529480 
	C817.284485,503.200256 818.317993,505.320465 815.589844,506.026703 
	C813.270203,506.627136 811.231262,506.106689 810.523010,503.390747 
	C809.181213,498.245636 807.870544,493.092377 806.431702,487.557190 
M797.524780,455.755463 
	C795.185791,462.666534 795.342529,469.864929 794.418762,476.920929 
	C801.037781,477.864288 805.202576,477.749329 808.893433,476.633514 
	C814.160828,475.041046 817.472717,469.018768 816.641602,462.544434 
	C815.978516,457.379486 813.116638,455.142273 806.729858,455.033691 
	C803.914551,454.985840 801.094177,455.236389 797.524780,455.755463 
z"/>
<path fill="#000000" opacity="1.000000" stroke="none" 
	d="
M680.973877,433.442963 
	C674.306763,435.029938 667.962402,434.139740 661.658752,434.253418 
	C659.188477,434.297974 658.694580,432.609680 658.695679,430.563995 
	C658.704651,414.080109 658.723511,397.596161 658.686035,381.112366 
	C658.680237,378.548615 659.885742,377.762299 662.313171,377.516388 
	C668.157349,376.924255 673.991943,377.162354 679.745117,377.931183 
	C686.319702,378.809723 691.199402,382.523865 693.486267,388.870850 
	C697.393005,399.713196 697.398926,410.729645 693.904968,421.671844 
	C691.950256,427.793762 687.857910,431.919800 680.973877,433.442963 
M689.673279,400.850128 
	C688.591675,387.150452 682.301575,381.880646 668.789246,383.155762 
	C666.350586,383.385864 665.120605,384.254028 665.124756,386.763336 
	C665.145874,399.551056 665.130554,412.338806 665.147400,425.126556 
	C665.149414,426.671600 665.395508,427.990723 667.266968,428.578369 
	C676.233337,431.393799 686.269043,425.781555 688.720520,416.623108 
	C690.035339,411.711121 689.658142,406.738525 689.673279,400.850128 
z"/>
<path fill="#000000" opacity="1.000000" stroke="none" 
	d="
M771.204834,460.259338 
	C773.336609,472.179047 771.228455,483.242767 767.257141,493.969727 
	C764.330994,501.873627 758.272278,506.140411 749.844055,506.935974 
	C740.019470,507.863342 733.368469,502.995728 731.632141,493.248810 
	C729.615967,481.930969 731.629456,470.908997 735.910034,460.523499 
	C740.220825,450.064667 750.314392,445.909088 761.096924,449.031036 
	C766.596619,450.623383 769.670776,454.496429 771.204834,460.259338 
M737.477051,490.795624 
	C738.605164,495.681305 740.113770,500.168152 746.219788,500.758087 
	C752.205933,501.336395 757.427795,499.816162 760.115479,494.200928 
	C765.027832,483.937988 766.549011,472.983429 764.753967,461.725494 
	C763.969604,456.805481 760.594910,454.435547 755.617432,454.210602 
	C747.813599,453.857971 742.870483,457.319763 740.538025,465.841095 
	C738.390442,473.687042 737.054138,481.733307 737.477051,490.795624 
z"/>
<path fill="#000000" opacity="1.000000" stroke="none" 
	d="
M798.109924,395.352295 
	C799.168945,403.933563 799.190369,412.047516 797.254089,420.094513 
	C794.828857,430.173340 788.847351,435.164307 778.999817,435.270142 
	C769.149353,435.376007 763.102417,430.598877 760.549194,420.424652 
	C758.072571,410.555267 758.193726,400.625580 760.647095,390.775391 
	C763.147400,380.737061 768.924316,376.493439 779.454285,376.637909 
	C789.234253,376.772095 795.062195,381.642029 797.266418,391.521423 
	C797.519653,392.656586 797.775452,393.791107 798.109924,395.352295 
M767.559509,421.719513 
	C770.482788,427.499268 774.314880,429.951996 779.640625,429.452057 
	C785.460693,428.905701 789.185059,425.860626 790.646729,419.572998 
	C792.779602,410.398010 792.814880,401.082581 790.607300,391.926239 
	C788.943726,385.026123 785.054077,382.226379 778.569580,382.296417 
	C772.403503,382.363037 768.837219,385.257690 767.052002,391.928345 
	C764.458618,401.619141 764.775513,411.312897 767.559509,421.719513 
z"/>
<path fill="#000000" opacity="1.000000" stroke="none" 
	d="
M942.159180,471.979401 
	C946.487244,473.303406 950.537231,474.285126 954.450195,475.657349 
	C959.529541,477.438660 963.873413,480.144318 964.290771,486.293610 
	C964.768372,493.331024 963.376770,499.754913 956.834412,503.632660 
	C949.992554,507.687988 942.602051,508.125488 935.213928,505.231384 
	C929.420593,502.962036 926.219727,497.111603 926.731567,490.750488 
	C926.908020,488.557556 927.363037,486.807373 930.103394,486.789062 
	C932.965454,486.769928 933.107117,488.617889 933.269592,490.790588 
	C933.873535,498.864227 937.216370,501.340302 946.487854,500.766113 
	C953.956787,500.303558 958.011169,495.991699 957.817932,489.003479 
	C957.682739,484.113800 954.559143,481.927643 950.549438,480.624359 
	C947.081055,479.497101 943.408081,478.975464 939.980713,477.751556 
	C934.346558,475.739471 930.654297,471.937897 930.707397,465.552643 
	C930.763855,458.757965 933.016785,452.965576 939.663330,450.140991 
	C946.006042,447.445557 952.667908,447.339478 959.145569,449.777893 
	C965.027649,451.992126 968.848999,460.597443 966.943970,466.478058 
	C966.323547,468.393219 965.093811,469.126404 963.197327,468.980347 
	C961.303589,468.834503 960.872925,467.595337 960.641479,465.920166 
	C959.203247,455.508331 955.787659,452.844269 946.013550,454.345093 
	C941.636169,455.017242 938.604431,457.306976 937.573059,461.711151 
	C936.561584,466.030151 937.535095,469.651764 942.159180,471.979401 
z"/>
<path fill="#000000" opacity="1.000000" stroke="none" 
	d="
M881.026367,491.250336 
	C882.655884,478.942932 884.402588,467.098083 885.686890,455.203308 
	C886.192810,450.517853 887.740723,448.444214 892.782715,448.717651 
	C900.088013,449.113861 907.430847,448.795166 914.757446,448.834320 
	C916.561951,448.843964 918.776245,448.663879 918.780640,451.340302 
	C918.784546,453.704254 917.307678,454.951050 914.915161,454.966644 
	C908.920959,455.005707 902.922424,455.171844 896.934021,454.997986 
	C893.600159,454.901215 891.951721,456.188812 891.700256,459.452728 
	C891.598206,460.777710 891.392639,462.094452 891.251343,463.416779 
	C890.135986,473.855194 890.137329,473.854065 900.868591,473.834534 
	C903.199768,473.830292 905.531982,473.798431 907.861877,473.854340 
	C909.726196,473.899048 911.790161,473.927582 911.746216,476.567322 
	C911.704163,479.093719 910.007935,479.959167 907.717529,479.960480 
	C903.388367,479.962921 899.045654,480.168488 894.733765,479.893585 
	C890.266541,479.608765 888.382874,481.438171 888.161926,485.849731 
	C887.939941,490.280640 887.217590,494.686493 886.670166,499.493073 
	C892.700500,500.476715 898.341797,499.766052 903.934509,500.002106 
	C905.597351,500.072266 907.270386,500.010559 908.923645,500.167633 
	C910.476379,500.315186 911.973389,500.775360 911.932190,502.775726 
	C911.893494,504.653870 911.076843,506.111908 909.016785,506.124634 
	C900.027039,506.180206 891.036621,506.174652 882.046814,506.118439 
	C879.709900,506.103821 879.484619,504.374664 879.678589,502.578461 
	C880.070984,498.946259 880.528015,495.321014 881.026367,491.250336 
z"/>
<path fill="#000000" opacity="1.000000" stroke="none" 
	d="
M638.867432,456.187103 
	C638.817932,449.757233 642.106628,448.395508 647.521912,448.746643 
	C653.983765,449.165619 660.494263,448.791260 666.982300,448.872040 
	C669.003174,448.897156 671.792053,448.242157 671.827759,451.577362 
	C671.863281,454.908234 669.202148,454.933655 666.821045,454.956268 
	C661.164429,455.009949 655.504883,455.100769 649.851074,454.975555 
	C646.810547,454.908264 645.353821,455.982208 644.953979,459.132782 
	C642.742676,476.554749 640.340454,473.604126 656.566528,473.847961 
	C658.229980,473.872955 659.895569,473.832123 661.556763,473.902740 
	C663.314392,473.977448 664.988647,474.327332 665.015564,476.586884 
	C665.043152,478.907257 663.567871,479.847839 661.482849,479.878693 
	C656.825623,479.947662 652.155273,480.126404 647.512268,479.866974 
	C643.481812,479.641754 641.743835,481.393890 641.382568,485.208344 
	C640.930969,489.975708 640.311584,494.727173 639.701538,500.034729 
	C646.867615,500.034729 653.636353,499.971588 660.402527,500.074127 
	C662.370850,500.103943 665.169556,499.317688 665.206726,502.766602 
	C665.242432,506.072693 662.829529,506.260315 660.335205,506.251526 
	C652.847900,506.225037 645.357666,506.104675 637.874207,506.271515 
	C633.629150,506.366150 632.460266,504.903046 633.087158,500.595184 
	C635.215393,485.969543 636.940491,471.285309 638.867432,456.187103 
z"/>
<path fill="#000000" opacity="1.000000" stroke="none" 
	d="
M719.213745,392.028473 
	C719.345703,402.788483 717.943604,401.990082 729.014221,402.052856 
	C731.844482,402.068909 734.677551,402.045044 737.503906,402.165802 
	C739.430054,402.248108 741.186157,402.699249 741.200562,405.231720 
	C741.215332,407.822906 739.467712,408.159668 737.505981,408.176666 
	C733.010010,408.215698 728.505005,408.383789 724.020142,408.163757 
	C720.258545,407.979187 718.960938,409.538788 719.154480,413.152161 
	C719.359009,416.971893 719.328857,420.814392 719.188782,424.639130 
	C719.076660,427.702393 720.416199,428.759857 723.363220,428.701965 
	C729.189392,428.587494 735.019714,428.673248 740.848267,428.696320 
	C742.942993,428.704620 745.069824,428.821533 744.911743,431.747833 
	C744.770691,434.358734 742.737549,434.322968 740.880432,434.327820 
	C732.887024,434.348633 724.893005,434.286560 716.900208,434.357208 
	C713.994873,434.382874 712.665894,433.263702 712.676880,430.242340 
	C712.736328,413.922455 712.749146,397.601929 712.653442,381.282318 
	C712.635498,378.227966 713.938721,377.061707 716.799011,377.107025 
	C725.120544,377.238892 733.442261,377.362579 741.764282,377.451630 
	C743.712463,377.472473 745.023376,378.068176 744.961731,380.285858 
	C744.900757,382.482910 743.443237,383.083374 741.605652,383.104706 
	C736.943420,383.158875 732.280518,383.158722 727.617920,383.173431 
	C719.198181,383.199982 719.198181,383.197876 719.213745,392.028473 
z"/>
<path fill="#000000" opacity="1.000000" stroke="none" 
	d="
M690.383179,448.881226 
	C694.507019,448.847290 698.172180,448.802063 701.836548,448.838501 
	C712.957825,448.949097 718.914917,453.387787 719.297607,461.805359 
	C719.818848,473.272736 713.098755,482.007843 702.727905,483.135925 
	C699.925049,483.440796 697.045349,483.540070 694.247009,483.264740 
	C690.324402,482.878815 688.839478,484.681244 688.514526,488.292542 
	C688.112183,492.764465 687.593323,497.231445 686.936707,501.672699 
	C686.598389,503.961395 686.190002,506.493439 682.817078,506.143005 
	C679.170837,505.764099 680.451904,503.111084 680.686707,501.198181 
	C682.671692,485.026367 684.760376,468.867310 686.790405,452.700958 
	C687.038696,450.723602 687.571716,449.093292 690.383179,448.881226 
M691.937988,463.261993 
	C691.589478,467.792969 690.002136,472.239868 690.496094,476.920837 
	C695.131714,477.575378 699.245789,477.848114 703.377319,476.936127 
	C710.604980,475.340759 714.954468,466.345886 711.720459,459.640411 
	C709.677979,455.405243 702.904053,453.539459 695.547974,455.114288 
	C691.174561,456.050629 692.731384,459.731293 691.937988,463.261993 
z"/>
<path fill="#000000" opacity="1.000000" stroke="none" 
	d="
M603.756714,409.938416 
	C606.421082,400.410492 609.196655,391.328735 611.521606,382.133026 
	C612.586121,377.922852 614.531860,376.538757 618.566406,378.055145 
	C619.699280,379.999847 618.474792,381.675995 618.002930,383.340881 
	C613.600220,398.874939 609.089172,414.378296 604.687683,429.912689 
	C603.873901,432.784729 603.185120,435.162140 599.308838,435.194885 
	C595.268799,435.229004 594.412781,432.891174 593.534668,429.745148 
	C589.282104,414.510529 584.858765,399.323608 580.518433,384.113373 
	C579.977844,382.218994 579.570618,380.286560 579.055237,378.182129 
	C583.551086,376.548615 585.667236,377.891998 586.791504,382.284119 
	C589.844971,394.212646 593.188538,406.068146 596.536438,417.918915 
	C597.099915,419.913574 597.216736,422.189056 599.221680,424.039185 
	C601.560852,419.609711 602.333862,414.872498 603.756714,409.938416 
z"/>
<path fill="#000000" opacity="1.000000" stroke="none" 
	d="
M849.913818,464.181824 
	C850.198853,462.433929 850.426575,461.123901 850.640137,459.811523 
	C851.190796,456.427490 849.894592,454.753143 846.324646,454.984741 
	C844.502686,455.102936 842.663452,455.034546 840.835632,454.960754 
	C839.049744,454.888733 837.487122,454.474548 837.563049,452.153320 
	C837.626953,450.199554 838.474792,448.914612 840.532227,448.909393 
	C850.182373,448.884979 859.832825,448.900818 869.482971,448.944580 
	C870.941956,448.951172 872.096130,449.547363 872.144470,451.260468 
	C872.191467,452.925171 871.578003,454.272461 869.861816,454.660797 
	C868.579468,454.950958 867.224854,454.981171 865.899719,455.013062 
	C857.585449,455.213074 857.564392,455.199707 856.451233,463.583435 
	C854.767822,476.262207 853.097229,488.942749 851.469238,501.628723 
	C851.153442,504.089996 850.838074,506.505768 847.515625,506.089447 
	C843.932068,505.640411 844.795776,502.881897 845.079834,500.671295 
	C846.624634,488.647919 848.251404,476.635071 849.913818,464.181824 
z"/>
<path fill="#000000" opacity="1.000000" stroke="none" 
	d="
M101.978241,520.878052 
	C97.670181,525.312439 92.955048,526.502563 87.643990,523.966675 
	C83.072906,521.784119 80.594231,518.241394 80.570328,512.908325 
	C80.545898,507.457794 82.763229,503.644226 87.611069,501.316040 
	C92.453766,498.990326 98.384193,500.381622 102.099365,504.659729 
	C106.269112,509.461395 106.309372,514.212891 101.978241,520.878052 
z"/>
<path fill="#000000" opacity="1.000000" stroke="none" 
	d="
M640.899902,409.999756 
	C640.830444,416.991669 640.825195,423.485321 640.654602,429.974640 
	C640.597961,432.130432 640.438538,434.444794 637.179810,434.275238 
	C634.000183,434.109772 634.596680,431.808563 634.582397,429.917511 
	C634.461243,413.935272 634.364929,397.952789 634.315918,381.970184 
	C634.311951,380.680786 634.714783,379.390137 634.922241,378.138397 
	C639.309753,376.702271 640.900085,378.160461 640.827515,382.531006 
	C640.678223,391.517731 640.856201,400.509888 640.899902,409.999756 
z"/>
</svg>